<svg width="100" height="68" viewBox="0 0 100 68" fill="none" xmlns="http://www.w3.org/2000/svg">
<g clip-path="url(#clip0_1374_1468)">
<path d="M25.5764 53.8828C22.1279 53.8828 19.0386 53.4278 16.3085 52.5178C13.6264 51.5599 11.495 49.9554 9.91444 47.7043C8.38177 45.4532 7.61544 42.3639 7.61544 38.4364V29.0967H1.93978C1.41293 29.0967 0.957917 28.9052 0.57475 28.522C0.191583 28.1388 0 27.6838 0 27.157V18.4639C0 17.937 0.191583 17.482 0.57475 17.0988C0.957917 16.7157 1.41293 16.5241 1.93978 16.5241H7.61544V4.81356C7.61544 4.28671 7.80702 3.8317 8.19019 3.44853C8.57336 3.06536 9.02837 2.87378 9.55522 2.87378H22.1279C22.6547 2.87378 23.1097 3.06536 23.4929 3.44853C23.8761 3.8317 24.0677 4.28671 24.0677 4.81356V16.5241H33.12C33.6468 16.5241 34.1018 16.7157 34.485 17.0988C34.8682 17.482 35.0598 17.937 35.0598 18.4639V27.157C35.0598 27.6838 34.8682 28.1388 34.485 28.522C34.1018 28.9052 33.6468 29.0967 33.12 29.0967H24.0677V36.9996C24.0677 38.1012 24.3071 38.9872 24.7861 39.6578C25.313 40.2804 26.1032 40.5918 27.1569 40.5918H33.6947C34.2216 40.5918 34.6766 40.7833 35.0598 41.1665C35.4429 41.5497 35.6345 42.0047 35.6345 42.5315V51.9431C35.6345 52.4699 35.4429 52.9249 35.0598 53.3081C34.6766 53.6913 34.2216 53.8828 33.6947 53.8828H25.5764Z" fill="white"/>
<path d="M34.3576 67.5331C33.8307 67.5331 33.3757 67.3415 32.9926 66.9583C32.6094 66.5752 32.4178 66.1201 32.4178 65.5933V56.9002C32.4178 56.3733 32.6094 55.9183 32.9926 55.5352C33.3757 55.152 33.8307 54.9604 34.3576 54.9604H38.5245C39.243 54.9604 39.8177 54.8168 40.2488 54.5294C40.7277 54.2421 41.063 53.8349 41.2546 53.3081C41.4941 52.7333 41.6138 52.0867 41.6138 51.3682V18.4638C41.6138 17.9369 41.8054 17.4819 42.1886 17.0987C42.5717 16.7156 43.0267 16.524 43.5536 16.524H57.0602C57.5871 16.524 58.0421 16.7156 58.4253 17.0987C58.8084 17.4819 59 17.9369 59 18.4638V51.7993C59 55.3915 58.1858 58.3371 56.5573 60.6361C54.9768 62.983 52.7975 64.7072 50.0195 65.8088C47.2895 66.9583 44.1762 67.5331 40.6798 67.5331H34.3576Z" fill="white"/>
<path d="M42.5478 11.9979C42.9309 12.3811 43.3859 12.5727 43.9128 12.5727H56.701C57.2278 12.5727 57.6829 12.3811 58.066 11.9979C58.4492 11.6147 58.6408 11.1597 58.6408 10.6329V1.93978C58.6408 1.41293 58.4492 0.957919 58.066 0.574752C57.6829 0.191584 57.2278 0 56.701 0H43.9128C43.3859 0 42.9309 0.191584 42.5478 0.574752C42.1646 0.957919 41.973 1.41293 41.973 1.93978V10.6329C41.973 11.1597 42.1646 11.6147 42.5478 11.9979Z" fill="white"/>
<path fill-rule="evenodd" clip-rule="evenodd" d="M66 16.9597C64.3431 16.9597 63 18.3028 63 19.9597V50.9597C63 52.6165 64.3431 53.9597 66 53.9597H97C98.6569 53.9597 100 52.6165 100 50.9597V19.9597C100 18.3028 98.6569 16.9597 97 16.9597H66ZM72.0068 42.1119C72.7293 42.3572 73.5949 42.4799 74.6036 42.4799C75.7214 42.4799 76.7165 42.3027 77.589 41.9483C78.4614 41.5802 79.1498 41.0622 79.6541 40.3943C80.1585 39.7264 80.4107 38.9289 80.4107 38.002C80.4107 37.1159 80.2267 36.3866 79.8586 35.8141C79.5042 35.2279 79.0135 34.7781 78.3864 34.4646C77.7594 34.151 77.0437 33.9534 76.2394 33.8716L76.035 33.8511L79.3679 30.5591C79.4497 30.5046 79.5178 30.4296 79.5724 30.3342C79.6269 30.2251 79.6541 30.0956 79.6541 29.9457V28.4735C79.6541 28.3235 79.6064 28.2009 79.511 28.1054C79.4156 28.01 79.2929 27.9623 79.143 27.9623H70.0643C69.9144 27.9623 69.7917 28.01 69.6963 28.1054C69.6009 28.2009 69.5531 28.3235 69.5531 28.4735V30.1093C69.5531 30.2456 69.6009 30.3615 69.6963 30.4569C69.7917 30.5523 69.9144 30.6 70.0643 30.6H75.8305L72.3135 33.8307C72.2454 33.8852 72.1772 33.967 72.1091 34.0761C72.0545 34.1851 72.0273 34.3214 72.0273 34.485V35.4869C72.0273 35.6232 72.075 35.7391 72.1704 35.8345C72.2658 35.93 72.3817 35.9777 72.518 35.9777H74.7059C75.4556 35.9777 76.035 36.1208 76.4439 36.4071C76.8529 36.6933 77.0573 37.1636 77.0573 37.8179C77.0573 38.4586 76.8392 38.9562 76.403 39.3106C75.9668 39.665 75.367 39.8422 74.6036 39.8422C74.222 39.8422 73.8607 39.8081 73.5199 39.74C73.1928 39.6582 72.9065 39.5219 72.6611 39.331C72.4158 39.1402 72.2386 38.888 72.1295 38.5745C72.0477 38.4245 71.9591 38.3223 71.8637 38.2678C71.7683 38.1996 71.6456 38.1655 71.4956 38.1655H69.2464C69.1238 38.1655 69.0215 38.2064 68.9397 38.2882C68.8579 38.37 68.817 38.4722 68.817 38.5949C68.8307 39.0175 68.9534 39.4605 69.1851 39.924C69.4168 40.3739 69.7644 40.7896 70.2279 41.1713C70.6914 41.553 71.2844 41.8665 72.0068 42.1119ZM88.9281 42.1323C89.0236 42.2277 89.1394 42.2755 89.2758 42.2755H91.4227C91.559 42.2755 91.6749 42.2277 91.7703 42.1323C91.8658 42.0369 91.9135 41.9142 91.9135 41.7643V39.3106H93.7537C93.89 39.3106 94.0059 39.2629 94.1013 39.1675C94.1968 39.072 94.2445 38.9494 94.2445 38.7994V37.0818C94.2445 36.9455 94.1968 36.8296 94.1013 36.7342C94.0195 36.6388 93.8969 36.5911 93.7333 36.5911H91.9135V28.4735C91.9135 28.3235 91.8658 28.2009 91.7703 28.1054C91.6749 28.01 91.559 27.9623 91.4227 27.9623H88.8259C88.4988 27.9623 88.2466 28.0782 88.0694 28.3099L82.0783 36.5297C82.0101 36.6252 81.9556 36.7274 81.9147 36.8365C81.8738 36.9455 81.8534 37.0477 81.8534 37.1432V38.7994C81.8534 38.9494 81.9011 39.072 81.9965 39.1675C82.0919 39.2629 82.2078 39.3106 82.3441 39.3106H88.785V41.7643C88.785 41.9142 88.8327 42.0369 88.9281 42.1323ZM88.8464 36.6933H85.0227L88.8464 31.3157V36.6933Z" fill="#39B7FF"/>
</g>
<defs>
<clipPath id="clip0_1374_1468">
<rect width="100" height="68" fill="white"/>
</clipPath>
</defs>
</svg>
